<mxfile host="app.diagrams.net" agent="Mozilla/5.0 (Windows NT 10.0; Win64; x64) AppleWebKit/537.36 (KHTML, like Gecko) Chrome/140.0.0.0 Safari/537.36" version="28.2.5">
  <diagram name="Page-1" id="EzRFhUlt7gMORHPH_r7D">
    <mxGraphModel dx="786" dy="464" grid="1" gridSize="10" guides="1" tooltips="1" connect="1" arrows="1" fold="1" page="1" pageScale="1" pageWidth="850" pageHeight="1100" math="0" shadow="0">
      <root>
        <mxCell id="0" />
        <mxCell id="1" parent="0" />
        <mxCell id="DnBC8tBBMOLLuuST0__f-1" value="User" style="rounded=0;whiteSpace=wrap;html=1;" vertex="1" parent="1">
          <mxGeometry x="180" y="220" width="120" height="60" as="geometry" />
        </mxCell>
        <mxCell id="DnBC8tBBMOLLuuST0__f-2" value="&amp;nbsp;Contact" style="rounded=0;whiteSpace=wrap;html=1;" vertex="1" parent="1">
          <mxGeometry x="630" y="180" width="120" height="60" as="geometry" />
        </mxCell>
        <mxCell id="DnBC8tBBMOLLuuST0__f-3" value="&lt;u&gt;id&lt;/u&gt;" style="ellipse;whiteSpace=wrap;html=1;" vertex="1" parent="1">
          <mxGeometry x="60" y="70" width="80" height="60" as="geometry" />
        </mxCell>
        <mxCell id="DnBC8tBBMOLLuuST0__f-4" value="&amp;nbsp;name" style="ellipse;whiteSpace=wrap;html=1;" vertex="1" parent="1">
          <mxGeometry x="170" y="60" width="80" height="60" as="geometry" />
        </mxCell>
        <mxCell id="DnBC8tBBMOLLuuST0__f-5" value="&amp;nbsp;Password" style="ellipse;whiteSpace=wrap;html=1;" vertex="1" parent="1">
          <mxGeometry x="270" y="60" width="80" height="60" as="geometry" />
        </mxCell>
        <mxCell id="DnBC8tBBMOLLuuST0__f-6" value="&amp;nbsp;About" style="ellipse;whiteSpace=wrap;html=1;" vertex="1" parent="1">
          <mxGeometry x="40" y="140" width="80" height="60" as="geometry" />
        </mxCell>
        <mxCell id="DnBC8tBBMOLLuuST0__f-7" value="&amp;nbsp;Emai&lt;u&gt;l&lt;/u&gt;" style="ellipse;whiteSpace=wrap;html=1;" vertex="1" parent="1">
          <mxGeometry x="380" y="90" width="80" height="60" as="geometry" />
        </mxCell>
        <mxCell id="DnBC8tBBMOLLuuST0__f-8" value="&amp;nbsp;Image" style="ellipse;whiteSpace=wrap;html=1;" vertex="1" parent="1">
          <mxGeometry x="360" y="170" width="80" height="60" as="geometry" />
        </mxCell>
        <mxCell id="DnBC8tBBMOLLuuST0__f-9" value="&amp;nbsp;Role" style="ellipse;whiteSpace=wrap;html=1;" vertex="1" parent="1">
          <mxGeometry x="30" y="210" width="80" height="60" as="geometry" />
        </mxCell>
        <mxCell id="DnBC8tBBMOLLuuST0__f-11" value="&amp;nbsp;Active" style="ellipse;whiteSpace=wrap;html=1;" vertex="1" parent="1">
          <mxGeometry x="40" y="290" width="80" height="60" as="geometry" />
        </mxCell>
        <mxCell id="DnBC8tBBMOLLuuST0__f-12" value="" style="endArrow=none;html=1;rounded=0;entryX=0;entryY=1;entryDx=0;entryDy=0;" edge="1" parent="1" source="DnBC8tBBMOLLuuST0__f-1" target="DnBC8tBBMOLLuuST0__f-8">
          <mxGeometry width="50" height="50" relative="1" as="geometry">
            <mxPoint x="380" y="270" as="sourcePoint" />
            <mxPoint x="430" y="220" as="targetPoint" />
          </mxGeometry>
        </mxCell>
        <mxCell id="DnBC8tBBMOLLuuST0__f-13" value="" style="endArrow=none;html=1;rounded=0;entryX=0.067;entryY=0.739;entryDx=0;entryDy=0;entryPerimeter=0;" edge="1" parent="1" target="DnBC8tBBMOLLuuST0__f-7">
          <mxGeometry width="50" height="50" relative="1" as="geometry">
            <mxPoint x="230" y="221" as="sourcePoint" />
            <mxPoint x="360" y="200" as="targetPoint" />
          </mxGeometry>
        </mxCell>
        <mxCell id="DnBC8tBBMOLLuuST0__f-15" value="" style="endArrow=none;html=1;rounded=0;entryX=0.5;entryY=1;entryDx=0;entryDy=0;exitX=0.367;exitY=0.028;exitDx=0;exitDy=0;exitPerimeter=0;" edge="1" parent="1" source="DnBC8tBBMOLLuuST0__f-1" target="DnBC8tBBMOLLuuST0__f-5">
          <mxGeometry width="50" height="50" relative="1" as="geometry">
            <mxPoint x="240" y="231" as="sourcePoint" />
            <mxPoint x="395" y="144" as="targetPoint" />
            <Array as="points">
              <mxPoint x="260" y="180" />
            </Array>
          </mxGeometry>
        </mxCell>
        <mxCell id="DnBC8tBBMOLLuuST0__f-16" value="" style="endArrow=none;html=1;rounded=0;entryX=0.5;entryY=1;entryDx=0;entryDy=0;exitX=0.25;exitY=0;exitDx=0;exitDy=0;" edge="1" parent="1" source="DnBC8tBBMOLLuuST0__f-1" target="DnBC8tBBMOLLuuST0__f-4">
          <mxGeometry width="50" height="50" relative="1" as="geometry">
            <mxPoint x="234" y="232" as="sourcePoint" />
            <mxPoint x="320" y="130" as="targetPoint" />
            <Array as="points">
              <mxPoint x="210" y="180" />
            </Array>
          </mxGeometry>
        </mxCell>
        <mxCell id="DnBC8tBBMOLLuuST0__f-18" value="" style="endArrow=none;html=1;rounded=0;entryX=0.683;entryY=0.917;entryDx=0;entryDy=0;entryPerimeter=0;" edge="1" parent="1" target="DnBC8tBBMOLLuuST0__f-3">
          <mxGeometry width="50" height="50" relative="1" as="geometry">
            <mxPoint x="200" y="220" as="sourcePoint" />
            <mxPoint x="220" y="130" as="targetPoint" />
            <Array as="points">
              <mxPoint x="190" y="210" />
            </Array>
          </mxGeometry>
        </mxCell>
        <mxCell id="DnBC8tBBMOLLuuST0__f-19" value="" style="endArrow=none;html=1;rounded=0;exitX=0.078;exitY=0.017;exitDx=0;exitDy=0;exitPerimeter=0;" edge="1" parent="1" source="DnBC8tBBMOLLuuST0__f-1" target="DnBC8tBBMOLLuuST0__f-6">
          <mxGeometry width="50" height="50" relative="1" as="geometry">
            <mxPoint x="210" y="230" as="sourcePoint" />
            <mxPoint x="125" y="135" as="targetPoint" />
            <Array as="points">
              <mxPoint x="200" y="220" />
            </Array>
          </mxGeometry>
        </mxCell>
        <mxCell id="DnBC8tBBMOLLuuST0__f-20" value="" style="endArrow=none;html=1;rounded=0;exitX=0;exitY=0.25;exitDx=0;exitDy=0;" edge="1" parent="1" source="DnBC8tBBMOLLuuST0__f-1" target="DnBC8tBBMOLLuuST0__f-9">
          <mxGeometry width="50" height="50" relative="1" as="geometry">
            <mxPoint x="220" y="240" as="sourcePoint" />
            <mxPoint x="125" y="195" as="targetPoint" />
            <Array as="points" />
          </mxGeometry>
        </mxCell>
        <mxCell id="DnBC8tBBMOLLuuST0__f-21" value="" style="endArrow=none;html=1;rounded=0;entryX=1;entryY=0;entryDx=0;entryDy=0;exitX=0;exitY=0.5;exitDx=0;exitDy=0;" edge="1" parent="1" source="DnBC8tBBMOLLuuST0__f-1" target="DnBC8tBBMOLLuuST0__f-11">
          <mxGeometry width="50" height="50" relative="1" as="geometry">
            <mxPoint x="190" y="220" as="sourcePoint" />
            <mxPoint x="120" y="247" as="targetPoint" />
            <Array as="points">
              <mxPoint x="180" y="250" />
            </Array>
          </mxGeometry>
        </mxCell>
        <mxCell id="DnBC8tBBMOLLuuST0__f-22" value="ContactId" style="ellipse;whiteSpace=wrap;html=1;" vertex="1" parent="1">
          <mxGeometry x="500" y="110" width="80" height="60" as="geometry" />
        </mxCell>
        <mxCell id="DnBC8tBBMOLLuuST0__f-23" value="&amp;nbsp;Name" style="ellipse;whiteSpace=wrap;html=1;" vertex="1" parent="1">
          <mxGeometry x="560" y="50" width="80" height="60" as="geometry" />
        </mxCell>
        <mxCell id="DnBC8tBBMOLLuuST0__f-24" value="&amp;nbsp;Email" style="ellipse;whiteSpace=wrap;html=1;" vertex="1" parent="1">
          <mxGeometry x="730" y="290" width="80" height="60" as="geometry" />
        </mxCell>
        <mxCell id="DnBC8tBBMOLLuuST0__f-25" value="&amp;nbsp;PhoneNumber" style="ellipse;whiteSpace=wrap;html=1;" vertex="1" parent="1">
          <mxGeometry x="770" y="200" width="80" height="60" as="geometry" />
        </mxCell>
        <mxCell id="DnBC8tBBMOLLuuST0__f-26" value="&amp;nbsp;Img" style="ellipse;whiteSpace=wrap;html=1;" vertex="1" parent="1">
          <mxGeometry x="740" y="40" width="80" height="60" as="geometry" />
        </mxCell>
        <mxCell id="DnBC8tBBMOLLuuST0__f-27" value="&amp;nbsp;About" style="ellipse;whiteSpace=wrap;html=1;" vertex="1" parent="1">
          <mxGeometry x="770" y="120" width="80" height="60" as="geometry" />
        </mxCell>
        <mxCell id="DnBC8tBBMOLLuuST0__f-28" value="&amp;nbsp;NickName" style="ellipse;whiteSpace=wrap;html=1;" vertex="1" parent="1">
          <mxGeometry x="650" y="40" width="80" height="60" as="geometry" />
        </mxCell>
        <mxCell id="DnBC8tBBMOLLuuST0__f-29" value="&amp;nbsp;Work" style="ellipse;whiteSpace=wrap;html=1;" vertex="1" parent="1">
          <mxGeometry x="620" y="290" width="80" height="60" as="geometry" />
        </mxCell>
        <mxCell id="DnBC8tBBMOLLuuST0__f-31" value="" style="endArrow=none;html=1;rounded=0;exitX=-0.017;exitY=0.117;exitDx=0;exitDy=0;exitPerimeter=0;entryX=1;entryY=1;entryDx=0;entryDy=0;" edge="1" parent="1" source="DnBC8tBBMOLLuuST0__f-2" target="DnBC8tBBMOLLuuST0__f-22">
          <mxGeometry width="50" height="50" relative="1" as="geometry">
            <mxPoint x="515" y="210" as="sourcePoint" />
            <mxPoint x="565" y="160" as="targetPoint" />
          </mxGeometry>
        </mxCell>
        <mxCell id="DnBC8tBBMOLLuuST0__f-32" value="" style="endArrow=none;html=1;rounded=0;exitX=0.25;exitY=0;exitDx=0;exitDy=0;entryX=1;entryY=1;entryDx=0;entryDy=0;" edge="1" parent="1" source="DnBC8tBBMOLLuuST0__f-2">
          <mxGeometry width="50" height="50" relative="1" as="geometry">
            <mxPoint x="670" y="136" as="sourcePoint" />
            <mxPoint x="610" y="110" as="targetPoint" />
          </mxGeometry>
        </mxCell>
        <mxCell id="DnBC8tBBMOLLuuST0__f-33" value="" style="endArrow=none;html=1;rounded=0;exitX=0.417;exitY=0;exitDx=0;exitDy=0;entryX=1;entryY=1;entryDx=0;entryDy=0;exitPerimeter=0;" edge="1" parent="1" source="DnBC8tBBMOLLuuST0__f-2">
          <mxGeometry width="50" height="50" relative="1" as="geometry">
            <mxPoint x="730" y="170" as="sourcePoint" />
            <mxPoint x="680" y="100" as="targetPoint" />
          </mxGeometry>
        </mxCell>
        <mxCell id="DnBC8tBBMOLLuuST0__f-34" value="" style="endArrow=none;html=1;rounded=0;exitX=0.667;exitY=0;exitDx=0;exitDy=0;entryX=1;entryY=1;entryDx=0;entryDy=0;exitPerimeter=0;" edge="1" parent="1" source="DnBC8tBBMOLLuuST0__f-2">
          <mxGeometry width="50" height="50" relative="1" as="geometry">
            <mxPoint x="750" y="170" as="sourcePoint" />
            <mxPoint x="750" y="90" as="targetPoint" />
          </mxGeometry>
        </mxCell>
        <mxCell id="DnBC8tBBMOLLuuST0__f-35" value="" style="endArrow=none;html=1;rounded=0;entryX=0.025;entryY=0.294;entryDx=0;entryDy=0;entryPerimeter=0;exitX=0.917;exitY=-0.05;exitDx=0;exitDy=0;exitPerimeter=0;" edge="1" parent="1" source="DnBC8tBBMOLLuuST0__f-2" target="DnBC8tBBMOLLuuST0__f-27">
          <mxGeometry width="50" height="50" relative="1" as="geometry">
            <mxPoint x="740" y="230" as="sourcePoint" />
            <mxPoint x="780" y="140" as="targetPoint" />
          </mxGeometry>
        </mxCell>
        <mxCell id="DnBC8tBBMOLLuuST0__f-36" value="" style="endArrow=none;html=1;rounded=0;entryX=0;entryY=0;entryDx=0;entryDy=0;exitX=1;exitY=0.5;exitDx=0;exitDy=0;" edge="1" parent="1" source="DnBC8tBBMOLLuuST0__f-2" target="DnBC8tBBMOLLuuST0__f-25">
          <mxGeometry width="50" height="50" relative="1" as="geometry">
            <mxPoint x="750" y="240" as="sourcePoint" />
            <mxPoint x="782" y="201" as="targetPoint" />
          </mxGeometry>
        </mxCell>
        <mxCell id="DnBC8tBBMOLLuuST0__f-37" value="" style="endArrow=none;html=1;rounded=0;entryX=0.308;entryY=-0.017;entryDx=0;entryDy=0;exitX=0.75;exitY=1;exitDx=0;exitDy=0;entryPerimeter=0;" edge="1" parent="1" source="DnBC8tBBMOLLuuST0__f-2" target="DnBC8tBBMOLLuuST0__f-24">
          <mxGeometry width="50" height="50" relative="1" as="geometry">
            <mxPoint x="760" y="220" as="sourcePoint" />
            <mxPoint x="792" y="219" as="targetPoint" />
          </mxGeometry>
        </mxCell>
        <mxCell id="DnBC8tBBMOLLuuST0__f-38" value="" style="endArrow=none;html=1;rounded=0;entryX=0.717;entryY=-0.017;entryDx=0;entryDy=0;exitX=0.383;exitY=1.05;exitDx=0;exitDy=0;entryPerimeter=0;exitPerimeter=0;" edge="1" parent="1" source="DnBC8tBBMOLLuuST0__f-2" target="DnBC8tBBMOLLuuST0__f-29">
          <mxGeometry width="50" height="50" relative="1" as="geometry">
            <mxPoint x="730" y="250" as="sourcePoint" />
            <mxPoint x="765" y="299" as="targetPoint" />
          </mxGeometry>
        </mxCell>
        <mxCell id="DnBC8tBBMOLLuuST0__f-39" value="Has" style="rhombus;whiteSpace=wrap;html=1;" vertex="1" parent="1">
          <mxGeometry x="410" y="340" width="80" height="80" as="geometry" />
        </mxCell>
        <mxCell id="DnBC8tBBMOLLuuST0__f-40" value="" style="endArrow=none;html=1;rounded=0;exitX=0.75;exitY=1;exitDx=0;exitDy=0;entryX=0;entryY=0.5;entryDx=0;entryDy=0;" edge="1" parent="1" source="DnBC8tBBMOLLuuST0__f-1" target="DnBC8tBBMOLLuuST0__f-39">
          <mxGeometry width="50" height="50" relative="1" as="geometry">
            <mxPoint x="420" y="270" as="sourcePoint" />
            <mxPoint x="470" y="220" as="targetPoint" />
          </mxGeometry>
        </mxCell>
        <mxCell id="DnBC8tBBMOLLuuST0__f-41" value="" style="endArrow=none;html=1;rounded=0;entryX=0;entryY=1;entryDx=0;entryDy=0;exitX=1;exitY=0.5;exitDx=0;exitDy=0;" edge="1" parent="1" source="DnBC8tBBMOLLuuST0__f-39" target="DnBC8tBBMOLLuuST0__f-2">
          <mxGeometry width="50" height="50" relative="1" as="geometry">
            <mxPoint x="490" y="270" as="sourcePoint" />
            <mxPoint x="540" y="220" as="targetPoint" />
          </mxGeometry>
        </mxCell>
        <mxCell id="DnBC8tBBMOLLuuST0__f-42" value="&amp;nbsp;1" style="text;html=1;align=center;verticalAlign=middle;resizable=0;points=[];autosize=1;strokeColor=none;fillColor=none;" vertex="1" parent="1">
          <mxGeometry x="295" y="308" width="30" height="30" as="geometry" />
        </mxCell>
        <mxCell id="DnBC8tBBMOLLuuST0__f-44" value="&amp;nbsp;N" style="text;html=1;align=center;verticalAlign=middle;resizable=0;points=[];autosize=1;strokeColor=none;fillColor=none;" vertex="1" parent="1">
          <mxGeometry x="530" y="318" width="40" height="30" as="geometry" />
        </mxCell>
      </root>
    </mxGraphModel>
  </diagram>
</mxfile>
